<svg xmlns="http://www.w3.org/2000/svg" viewBox="0 0 184.79 180.44"><g id="Layer_2" data-name="Layer 2"><g id="Layer_1-2" data-name="Layer 1"><polygon points="15.69 158.08 23.54 165.61 23.54 55.9 15.69 40.97 15.69 158.08"/><polygon points="161.26 54.91 161.26 165.81 169.1 158.28 169.1 39.99 161.26 54.91"/><polygon points="31.38 173.15 36.23 177.8 38.97 180.44 39.23 180.44 39.23 85.64 31.38 70.82 31.38 173.15"/><polygon points="153.41 173.35 153.41 69.73 145.57 84.55 145.57 180.44 146.03 180.44 148.77 177.8 153.41 173.35"/><polygon points="108.63 110.92 167.03 0 158.21 0 104.16 102.75 108.63 110.92"/><polygon points="96.86 133.36 26.7 0 17.76 0 87.93 133.36 96.86 133.36"/><polygon points="7.84 150.55 7.84 14.93 70.28 133.36 79.1 133.36 8.83 0 0 0 0 143.01 7.84 150.55"/><polygon points="114.51 133.36 176.95 14.93 176.95 150.75 184.79 143.22 184.79 0 175.86 0 110.16 125.08 44.35 0 35.52 0 105.58 133.36 114.51 133.36"/><polygon points="149.27 0 140.34 0 95.01 85.53 99.59 93.81 149.27 0"/></g></g></svg>